<svg data-logo="logo" xmlns="http://www.w3.org/2000/svg" viewBox="0 0 432.05999755859375 41">
        <g style="opacity: 1;" id="logogram" transform="translate(0, 0.5)
    rotate(0 20 20)"><path d="M30 28V12C30 10.8954 29.1046 10 28 10H27.8994C27.369 10 26.8604 10.2109 26.4854 10.5859L10.5859 26.4854C10.2109 26.8604 10 27.369 10 27.8994V40H0V27.8994C2.15312e-05 24.7168 1.26423 21.6645 3.51465 19.4141L19.4141 3.51465C21.6645 1.26423 24.7168 2.1373e-05 27.8994 0H28C34.6274 0 40 5.37258 40 12V28C40 34.6274 34.6274 40 28 40H14V30H28C29.1046 30 30 29.1046 30 28Z M0 0H17L7 10H0V0Z" fill="#CDFF61"></path></g>
        <g style="opacity: 1;" id="logotype" transform="translate(46, 1)"><path fill="#000000" d="M12.93 32L8.31 32L8.31 7.50L23.71 7.50L23.71 11.70L12.93 11.70L12.93 17.61L22.87 17.61L22.87 21.81L12.93 21.81L12.93 32ZM31.55 32L27.14 32L27.14 14.64L31.55 14.64L31.55 32ZM29.35 12.61L29.35 12.61Q28.16 12.61 27.33 11.84Q26.51 11.07 26.51 9.81L26.51 9.81Q26.51 8.55 27.33 7.78Q28.16 7.01 29.35 7.01L29.35 7.01Q30.57 7.01 31.38 7.78Q32.18 8.55 32.18 9.81L32.18 9.81Q32.18 11.07 31.38 11.84Q30.57 12.61 29.35 12.61ZM40.86 32L36.45 32L36.45 14.64L40.79 14.64L40.79 16.91L41.42 16.91Q41.84 16.00 43.00 15.18Q44.15 14.36 46.50 14.36L46.50 14.36Q48.53 14.36 50.05 15.29Q51.57 16.21 52.41 17.84Q53.25 19.47 53.25 21.64L53.25 21.64L53.25 32L48.84 32L48.84 21.99Q48.84 20.03 47.88 19.05Q46.91 18.07 45.13 18.07L45.13 18.07Q43.10 18.07 41.98 19.42Q40.86 20.77 40.86 23.18L40.86 23.18L40.86 32ZM65.01 32.49L65.01 32.49Q62.95 32.49 61.14 31.46Q59.34 30.43 58.26 28.43Q57.17 26.43 57.17 23.60L57.17 23.60L57.17 23.04Q57.17 20.20 58.26 18.21Q59.34 16.21 61.13 15.18Q62.91 14.15 65.01 14.15L65.01 14.15Q66.59 14.15 67.65 14.52Q68.72 14.88 69.39 15.44Q70.05 16.00 70.40 16.63L70.40 16.63L71.03 16.63L71.03 7.50L75.44 7.50L75.44 32L71.10 32L71.10 29.90L70.47 29.90Q69.88 30.88 68.63 31.68Q67.39 32.49 65.01 32.49ZM66.34 28.64L66.34 28.64Q68.37 28.64 69.73 27.33Q71.10 26.02 71.10 23.49L71.10 23.49L71.10 23.14Q71.10 20.63 69.75 19.31Q68.41 18 66.34 18L66.34 18Q64.31 18 62.95 19.31Q61.58 20.63 61.58 23.14L61.58 23.14L61.58 23.49Q61.58 26.02 62.95 27.33Q64.31 28.64 66.34 28.64ZM102.04 39L91.12 39L91.12 35.15L100.57 35.15Q101.55 35.15 101.55 34.10L101.55 34.10L101.55 29.73L100.92 29.73Q100.64 30.32 100.05 30.91Q99.45 31.51 98.44 31.89Q97.42 32.28 95.84 32.28L95.84 32.28Q93.81 32.28 92.29 31.35Q90.77 30.43 89.93 28.78Q89.09 27.13 89.09 25L89.09 25L89.09 14.64L93.50 14.64L93.50 24.65Q93.50 26.61 94.46 27.59Q95.42 28.57 97.21 28.57L97.21 28.57Q99.24 28.57 100.36 27.22Q101.48 25.88 101.48 23.46L101.48 23.46L101.48 14.64L105.89 14.64L105.89 35.08Q105.89 36.87 104.84 37.93Q103.79 39 102.04 39L102.04 39ZM119.05 32.49L119.05 32.49Q116.46 32.49 114.40 31.44Q112.33 30.39 111.14 28.39Q109.95 26.40 109.95 23.60L109.95 23.60L109.95 23.04Q109.95 20.24 111.14 18.24Q112.33 16.25 114.40 15.20Q116.46 14.15 119.05 14.15L119.05 14.15Q121.64 14.15 123.71 15.20Q125.77 16.25 126.96 18.24Q128.15 20.24 128.15 23.04L128.15 23.04L128.15 23.60Q128.15 26.40 126.96 28.39Q125.77 30.39 123.71 31.44Q121.64 32.49 119.05 32.49ZM119.05 28.57L119.05 28.57Q121.08 28.57 122.41 27.26Q123.74 25.95 123.74 23.49L123.74 23.49L123.74 23.14Q123.74 20.70 122.43 19.38Q121.12 18.07 119.05 18.07L119.05 18.07Q117.02 18.07 115.69 19.38Q114.36 20.70 114.36 23.14L114.36 23.14L114.36 23.49Q114.36 25.95 115.69 27.26Q117.02 28.57 119.05 28.57ZM138.82 32.28L138.82 32.28Q136.79 32.28 135.27 31.35Q133.75 30.43 132.91 28.78Q132.07 27.13 132.07 25L132.07 25L132.07 14.64L136.48 14.64L136.48 24.65Q136.48 26.61 137.44 27.59Q138.41 28.57 140.19 28.57L140.19 28.57Q142.22 28.57 143.34 27.22Q144.46 25.88 144.46 23.46L144.46 23.46L144.46 14.64L148.87 14.64L148.87 32L144.53 32L144.53 29.73L143.90 29.73Q143.48 30.60 142.32 31.44Q141.17 32.28 138.82 32.28ZM158.18 32L153.77 32L153.77 14.64L158.11 14.64L158.11 16.60L158.74 16.60Q159.13 15.55 160.02 15.06Q160.91 14.57 162.10 14.57L162.10 14.57L164.20 14.57L164.20 18.49L162.03 18.49Q160.35 18.49 159.26 19.38Q158.18 20.27 158.18 22.13L158.18 22.13L158.18 32ZM184.67 32.49L184.67 32.49Q182.16 32.49 180.11 31.44Q178.06 30.39 176.87 28.39Q175.68 26.40 175.68 23.56L175.68 23.56L175.68 23.07Q175.68 20.24 176.87 18.24Q178.06 16.25 180.11 15.20Q182.16 14.15 184.67 14.15L184.67 14.15Q187.16 14.15 188.94 15.02Q190.73 15.90 191.83 17.42Q192.94 18.95 193.28 20.87L193.28 20.87L189.01 21.78Q188.88 20.73 188.38 19.89Q187.89 19.05 187.00 18.56Q186.11 18.07 184.78 18.07L184.78 18.07Q183.45 18.07 182.38 18.65Q181.31 19.23 180.70 20.36Q180.09 21.50 180.09 23.14L180.09 23.14L180.09 23.49Q180.09 25.14 180.70 26.28Q181.31 27.41 182.38 27.99Q183.45 28.57 184.78 28.57L184.78 28.57Q186.78 28.57 187.81 27.54Q188.84 26.50 189.12 24.82L189.12 24.82L193.39 25.84Q192.94 27.70 191.83 29.22Q190.73 30.74 188.94 31.61Q187.16 32.49 184.67 32.49ZM205.29 32.49L205.29 32.49Q202.70 32.49 200.63 31.44Q198.57 30.39 197.38 28.39Q196.19 26.40 196.19 23.60L196.19 23.60L196.19 23.04Q196.19 20.24 197.38 18.24Q198.57 16.25 200.63 15.20Q202.70 14.15 205.29 14.15L205.29 14.15Q207.88 14.15 209.94 15.20Q212.01 16.25 213.20 18.24Q214.39 20.24 214.39 23.04L214.39 23.04L214.39 23.60Q214.39 26.40 213.20 28.39Q212.01 30.39 209.94 31.44Q207.88 32.49 205.29 32.49ZM205.29 28.57L205.29 28.57Q207.32 28.57 208.65 27.26Q209.98 25.95 209.98 23.49L209.98 23.49L209.98 23.14Q209.98 20.70 208.67 19.38Q207.35 18.07 205.29 18.07L205.29 18.07Q203.26 18.07 201.93 19.38Q200.60 20.70 200.60 23.14L200.60 23.14L200.60 23.49Q200.60 25.95 201.93 27.26Q203.26 28.57 205.29 28.57ZM222.86 32L218.45 32L218.45 14.64L222.79 14.64L222.79 16.53L223.42 16.53Q223.88 15.65 224.93 15.01Q225.97 14.36 227.69 14.36L227.69 14.36Q229.55 14.36 230.66 15.08Q231.78 15.79 232.38 16.95L232.38 16.95L233.01 16.95Q233.60 15.83 234.69 15.09Q235.78 14.36 237.77 14.36L237.77 14.36Q239.38 14.36 240.69 15.04Q242.00 15.72 242.79 17.11Q243.58 18.49 243.58 20.59L243.58 20.59L243.58 32L239.17 32L239.17 20.91Q239.17 19.47 238.44 18.75Q237.70 18.03 236.37 18.03L236.37 18.03Q234.87 18.03 234.04 19.00Q233.22 19.96 233.22 21.74L233.22 21.74L233.22 32L228.81 32L228.81 20.91Q228.81 19.47 228.07 18.75Q227.34 18.03 226.01 18.03L226.01 18.03Q224.50 18.03 223.68 19.00Q222.86 19.96 222.86 21.74L222.86 21.74L222.86 32ZM252.75 39L248.34 39L248.34 14.64L252.68 14.64L252.68 16.74L253.31 16.74Q253.91 15.72 255.17 14.94Q256.43 14.15 258.77 14.15L258.77 14.15Q260.87 14.15 262.66 15.18Q264.44 16.21 265.53 18.21Q266.61 20.20 266.61 23.04L266.61 23.04L266.61 23.60Q266.61 26.43 265.53 28.43Q264.44 30.43 262.66 31.46Q260.87 32.49 258.77 32.49L258.77 32.49Q257.19 32.49 256.13 32.12Q255.06 31.75 254.41 31.18Q253.77 30.60 253.38 30.00L253.38 30.00L252.75 30.00L252.75 39ZM257.44 28.64L257.44 28.64Q259.50 28.64 260.85 27.33Q262.20 26.02 262.20 23.49L262.20 23.49L262.20 23.14Q262.20 20.63 260.84 19.31Q259.47 18 257.44 18L257.44 18Q255.41 18 254.05 19.31Q252.68 20.63 252.68 23.14L252.68 23.14L252.68 23.49Q252.68 26.02 254.05 27.33Q255.41 28.64 257.44 28.64ZM278.93 32.49L278.93 32.49Q276.34 32.49 274.28 31.44Q272.21 30.39 271.02 28.39Q269.83 26.40 269.83 23.60L269.83 23.60L269.83 23.04Q269.83 20.24 271.02 18.24Q272.21 16.25 274.28 15.20Q276.34 14.15 278.93 14.15L278.93 14.15Q281.52 14.15 283.59 15.20Q285.65 16.25 286.84 18.24Q288.03 20.24 288.03 23.04L288.03 23.04L288.03 23.60Q288.03 26.40 286.84 28.39Q285.65 30.39 283.59 31.44Q281.52 32.49 278.93 32.49ZM278.93 28.57L278.93 28.57Q280.96 28.57 282.29 27.26Q283.62 25.95 283.62 23.49L283.62 23.49L283.62 23.14Q283.62 20.70 282.31 19.38Q281.00 18.07 278.93 18.07L278.93 18.07Q276.90 18.07 275.57 19.38Q274.24 20.70 274.24 23.14L274.24 23.14L274.24 23.49Q274.24 25.95 275.57 27.26Q276.90 28.57 278.93 28.57ZM296.50 32L292.09 32L292.09 14.64L296.43 14.64L296.43 16.91L297.06 16.91Q297.48 16.00 298.64 15.18Q299.79 14.36 302.14 14.36L302.14 14.36Q304.17 14.36 305.69 15.29Q307.21 16.21 308.05 17.84Q308.89 19.47 308.89 21.64L308.89 21.64L308.89 32L304.48 32L304.48 21.99Q304.48 20.03 303.52 19.05Q302.56 18.07 300.77 18.07L300.77 18.07Q298.74 18.07 297.62 19.42Q296.50 20.77 296.50 23.18L296.50 23.18L296.50 32ZM321.56 32.49L321.56 32.49Q318.97 32.49 316.99 31.39Q315.02 30.29 313.91 28.27Q312.81 26.26 312.81 23.53L312.81 23.53L312.81 23.11Q312.81 20.38 313.90 18.37Q314.98 16.35 316.94 15.25Q318.90 14.15 321.49 14.15L321.49 14.15Q324.05 14.15 325.94 15.29Q327.83 16.42 328.88 18.44Q329.93 20.45 329.93 23.11L329.93 23.11L329.93 24.61L317.29 24.61Q317.36 26.40 318.62 27.52Q319.88 28.64 321.70 28.64L321.70 28.64Q323.56 28.64 324.43 27.84Q325.31 27.03 325.76 26.05L325.76 26.05L329.37 27.94Q328.88 28.85 327.95 29.92Q327.02 30.98 325.48 31.74Q323.94 32.49 321.56 32.49ZM317.33 21.32L317.33 21.32L325.45 21.32Q325.31 19.82 324.24 18.91Q323.17 18 321.46 18L321.46 18Q319.67 18 318.62 18.91Q317.57 19.82 317.33 21.32ZM338.26 32L333.85 32L333.85 14.64L338.19 14.64L338.19 16.91L338.82 16.91Q339.24 16.00 340.39 15.18Q341.55 14.36 343.89 14.36L343.89 14.36Q345.92 14.36 347.44 15.29Q348.97 16.21 349.81 17.84Q350.65 19.47 350.65 21.64L350.65 21.64L350.65 32L346.24 32L346.24 21.99Q346.24 20.03 345.27 19.05Q344.31 18.07 342.53 18.07L342.53 18.07Q340.50 18.07 339.38 19.42Q338.26 20.77 338.26 23.18L338.26 23.18L338.26 32ZM366.47 32L361.57 32Q359.85 32 358.78 30.93Q357.72 29.86 357.72 28.08L357.72 28.08L357.72 18.28L353.38 18.28L353.38 14.64L357.72 14.64L357.72 9.25L362.13 9.25L362.13 14.64L366.89 14.64L366.89 18.28L362.13 18.28L362.13 27.31Q362.13 28.36 363.11 28.36L363.11 28.36L366.47 28.36L366.47 32ZM378.09 32.49L378.09 32.49Q374.69 32.49 372.52 31.02Q370.35 29.55 369.90 26.82L369.90 26.82L373.95 25.77Q374.20 26.99 374.78 27.70Q375.36 28.39 376.21 28.69Q377.07 28.99 378.09 28.99L378.09 28.99Q379.63 28.99 380.36 28.45Q381.10 27.91 381.10 27.10L381.10 27.10Q381.10 26.29 380.40 25.86Q379.69 25.42 378.16 25.14L378.16 25.14L377.18 24.96Q375.36 24.61 373.85 24.00Q372.35 23.39 371.44 22.30Q370.53 21.22 370.53 19.50L370.53 19.50Q370.53 16.91 372.42 15.53Q374.31 14.15 377.38 14.15L377.38 14.15Q380.29 14.15 382.22 15.44Q384.14 16.74 384.74 18.84L384.74 18.84L380.64 20.10Q380.36 18.77 379.50 18.21Q378.65 17.65 377.38 17.65L377.38 17.65Q376.13 17.65 375.46 18.09Q374.80 18.52 374.80 19.29L374.80 19.29Q374.80 20.13 375.50 20.54Q376.19 20.94 377.38 21.15L377.38 21.15L378.37 21.32Q380.32 21.67 381.92 22.25Q383.51 22.83 384.44 23.90Q385.37 24.96 385.37 26.79L385.37 26.79Q385.37 29.52 383.39 31.00Q381.41 32.49 378.09 32.49Z"></path></g>
        
      </svg>